<mxfile host="app.diagrams.net" modified="2024-02-12T07:40:55.963Z" agent="Mozilla/5.0 (Windows NT 10.0; Win64; x64) AppleWebKit/537.36 (KHTML, like Gecko) Chrome/121.0.0.0 Safari/537.36" etag="A9Pud-1uqthvO0RJoEE5" version="23.1.2" type="github">
  <diagram id="R2lEEEUBdFMjLlhIrx00" name="Page-1">
    <mxGraphModel dx="1434" dy="738" grid="1" gridSize="10" guides="1" tooltips="1" connect="1" arrows="1" fold="1" page="1" pageScale="1" pageWidth="850" pageHeight="1100" math="0" shadow="0" extFonts="Permanent Marker^https://fonts.googleapis.com/css?family=Permanent+Marker">
      <root>
        <mxCell id="0" />
        <mxCell id="1" parent="0" />
        <mxCell id="algwzxm7ROfjzH3wWhtB-11" style="edgeStyle=orthogonalEdgeStyle;rounded=0;orthogonalLoop=1;jettySize=auto;html=1;" edge="1" parent="1" source="algwzxm7ROfjzH3wWhtB-1" target="algwzxm7ROfjzH3wWhtB-10">
          <mxGeometry relative="1" as="geometry" />
        </mxCell>
        <mxCell id="algwzxm7ROfjzH3wWhtB-14" value="1" style="edgeLabel;html=1;align=center;verticalAlign=middle;resizable=0;points=[];" vertex="1" connectable="0" parent="algwzxm7ROfjzH3wWhtB-11">
          <mxGeometry x="-0.1" y="3" relative="1" as="geometry">
            <mxPoint y="-3" as="offset" />
          </mxGeometry>
        </mxCell>
        <mxCell id="algwzxm7ROfjzH3wWhtB-29" style="edgeStyle=orthogonalEdgeStyle;rounded=0;orthogonalLoop=1;jettySize=auto;html=1;" edge="1" parent="1" source="algwzxm7ROfjzH3wWhtB-1" target="algwzxm7ROfjzH3wWhtB-23">
          <mxGeometry relative="1" as="geometry">
            <Array as="points">
              <mxPoint x="420" y="230" />
              <mxPoint x="420" y="230" />
            </Array>
          </mxGeometry>
        </mxCell>
        <mxCell id="algwzxm7ROfjzH3wWhtB-44" value="1" style="edgeLabel;html=1;align=center;verticalAlign=middle;resizable=0;points=[];" vertex="1" connectable="0" parent="algwzxm7ROfjzH3wWhtB-29">
          <mxGeometry x="0.0807" y="-3" relative="1" as="geometry">
            <mxPoint x="-5" y="-2" as="offset" />
          </mxGeometry>
        </mxCell>
        <mxCell id="algwzxm7ROfjzH3wWhtB-34" value="" style="edgeStyle=orthogonalEdgeStyle;rounded=0;orthogonalLoop=1;jettySize=auto;html=1;" edge="1" parent="1" source="algwzxm7ROfjzH3wWhtB-1" target="algwzxm7ROfjzH3wWhtB-33">
          <mxGeometry relative="1" as="geometry" />
        </mxCell>
        <mxCell id="algwzxm7ROfjzH3wWhtB-37" value="1" style="edgeLabel;html=1;align=center;verticalAlign=middle;resizable=0;points=[];" vertex="1" connectable="0" parent="algwzxm7ROfjzH3wWhtB-34">
          <mxGeometry x="-0.0154" y="-1" relative="1" as="geometry">
            <mxPoint as="offset" />
          </mxGeometry>
        </mxCell>
        <mxCell id="algwzxm7ROfjzH3wWhtB-1" value="用户" style="rounded=0;whiteSpace=wrap;html=1;fillColor=#f5f5f5;fontColor=#333333;strokeColor=#666666;" vertex="1" parent="1">
          <mxGeometry x="360" y="290" width="115" height="50" as="geometry" />
        </mxCell>
        <mxCell id="algwzxm7ROfjzH3wWhtB-4" style="edgeStyle=orthogonalEdgeStyle;rounded=0;orthogonalLoop=1;jettySize=auto;html=1;" edge="1" parent="1" source="algwzxm7ROfjzH3wWhtB-2" target="algwzxm7ROfjzH3wWhtB-3">
          <mxGeometry relative="1" as="geometry" />
        </mxCell>
        <mxCell id="algwzxm7ROfjzH3wWhtB-5" value="1" style="edgeLabel;html=1;align=center;verticalAlign=middle;resizable=0;points=[];" vertex="1" connectable="0" parent="algwzxm7ROfjzH3wWhtB-4">
          <mxGeometry x="0.0444" y="2" relative="1" as="geometry">
            <mxPoint x="1" as="offset" />
          </mxGeometry>
        </mxCell>
        <mxCell id="algwzxm7ROfjzH3wWhtB-2" value="管理员" style="rounded=0;whiteSpace=wrap;html=1;fillColor=#f5f5f5;fontColor=#333333;strokeColor=#666666;" vertex="1" parent="1">
          <mxGeometry x="360" y="560" width="115" height="50" as="geometry" />
        </mxCell>
        <mxCell id="algwzxm7ROfjzH3wWhtB-6" style="edgeStyle=orthogonalEdgeStyle;rounded=0;orthogonalLoop=1;jettySize=auto;html=1;" edge="1" parent="1" source="algwzxm7ROfjzH3wWhtB-3" target="algwzxm7ROfjzH3wWhtB-1">
          <mxGeometry relative="1" as="geometry">
            <Array as="points">
              <mxPoint x="418" y="410" />
              <mxPoint x="418" y="410" />
            </Array>
          </mxGeometry>
        </mxCell>
        <mxCell id="algwzxm7ROfjzH3wWhtB-7" value="n" style="edgeLabel;html=1;align=center;verticalAlign=middle;resizable=0;points=[];" vertex="1" connectable="0" parent="algwzxm7ROfjzH3wWhtB-6">
          <mxGeometry x="-0.0462" y="-1" relative="1" as="geometry">
            <mxPoint x="-1" as="offset" />
          </mxGeometry>
        </mxCell>
        <mxCell id="algwzxm7ROfjzH3wWhtB-46" value="" style="edgeStyle=orthogonalEdgeStyle;rounded=0;orthogonalLoop=1;jettySize=auto;html=1;" edge="1" parent="1" source="algwzxm7ROfjzH3wWhtB-3" target="algwzxm7ROfjzH3wWhtB-45">
          <mxGeometry relative="1" as="geometry" />
        </mxCell>
        <mxCell id="algwzxm7ROfjzH3wWhtB-47" value="n" style="edgeLabel;html=1;align=center;verticalAlign=middle;resizable=0;points=[];" vertex="1" connectable="0" parent="algwzxm7ROfjzH3wWhtB-46">
          <mxGeometry x="-0.0182" y="3" relative="1" as="geometry">
            <mxPoint x="1" as="offset" />
          </mxGeometry>
        </mxCell>
        <mxCell id="algwzxm7ROfjzH3wWhtB-58" value="" style="edgeStyle=orthogonalEdgeStyle;rounded=0;orthogonalLoop=1;jettySize=auto;html=1;" edge="1" parent="1" source="algwzxm7ROfjzH3wWhtB-3" target="algwzxm7ROfjzH3wWhtB-55">
          <mxGeometry relative="1" as="geometry" />
        </mxCell>
        <mxCell id="algwzxm7ROfjzH3wWhtB-59" value="n" style="edgeLabel;html=1;align=center;verticalAlign=middle;resizable=0;points=[];" vertex="1" connectable="0" parent="algwzxm7ROfjzH3wWhtB-58">
          <mxGeometry x="-0.1414" relative="1" as="geometry">
            <mxPoint x="1" as="offset" />
          </mxGeometry>
        </mxCell>
        <mxCell id="algwzxm7ROfjzH3wWhtB-3" value="管理" style="rhombus;whiteSpace=wrap;html=1;fillColor=#f5f5f5;fontColor=#333333;strokeColor=#666666;" vertex="1" parent="1">
          <mxGeometry x="357.5" y="430" width="120" height="50" as="geometry" />
        </mxCell>
        <mxCell id="algwzxm7ROfjzH3wWhtB-13" style="edgeStyle=orthogonalEdgeStyle;rounded=0;orthogonalLoop=1;jettySize=auto;html=1;entryX=1;entryY=0.5;entryDx=0;entryDy=0;" edge="1" parent="1" source="algwzxm7ROfjzH3wWhtB-10" target="algwzxm7ROfjzH3wWhtB-12">
          <mxGeometry relative="1" as="geometry" />
        </mxCell>
        <mxCell id="algwzxm7ROfjzH3wWhtB-15" value="n" style="edgeLabel;html=1;align=center;verticalAlign=middle;resizable=0;points=[];" vertex="1" connectable="0" parent="algwzxm7ROfjzH3wWhtB-13">
          <mxGeometry x="-0.2" relative="1" as="geometry">
            <mxPoint as="offset" />
          </mxGeometry>
        </mxCell>
        <mxCell id="algwzxm7ROfjzH3wWhtB-10" value="评论" style="rhombus;whiteSpace=wrap;html=1;fillColor=#f5f5f5;fontColor=#333333;strokeColor=#666666;" vertex="1" parent="1">
          <mxGeometry x="180" y="290" width="120" height="50" as="geometry" />
        </mxCell>
        <mxCell id="algwzxm7ROfjzH3wWhtB-17" value="" style="edgeStyle=orthogonalEdgeStyle;rounded=0;orthogonalLoop=1;jettySize=auto;html=1;" edge="1" parent="1" source="algwzxm7ROfjzH3wWhtB-12" target="algwzxm7ROfjzH3wWhtB-16">
          <mxGeometry relative="1" as="geometry" />
        </mxCell>
        <mxCell id="algwzxm7ROfjzH3wWhtB-19" value="" style="edgeStyle=orthogonalEdgeStyle;rounded=0;orthogonalLoop=1;jettySize=auto;html=1;" edge="1" parent="1" source="algwzxm7ROfjzH3wWhtB-12" target="algwzxm7ROfjzH3wWhtB-18">
          <mxGeometry relative="1" as="geometry" />
        </mxCell>
        <mxCell id="algwzxm7ROfjzH3wWhtB-12" value="评论" style="rounded=0;whiteSpace=wrap;html=1;fillColor=#f5f5f5;fontColor=#333333;strokeColor=#666666;" vertex="1" parent="1">
          <mxGeometry x="20" y="290" width="115" height="50" as="geometry" />
        </mxCell>
        <mxCell id="algwzxm7ROfjzH3wWhtB-16" value="用户ID" style="ellipse;whiteSpace=wrap;html=1;fillColor=#f5f5f5;strokeColor=#666666;fontColor=#333333;rounded=0;" vertex="1" parent="1">
          <mxGeometry x="37.5" y="230" width="80" height="35" as="geometry" />
        </mxCell>
        <mxCell id="algwzxm7ROfjzH3wWhtB-18" value="景点ID" style="ellipse;whiteSpace=wrap;html=1;fillColor=#f5f5f5;strokeColor=#666666;fontColor=#333333;rounded=0;" vertex="1" parent="1">
          <mxGeometry x="37.5" y="370" width="80" height="35" as="geometry" />
        </mxCell>
        <mxCell id="algwzxm7ROfjzH3wWhtB-21" style="edgeStyle=orthogonalEdgeStyle;rounded=0;orthogonalLoop=1;jettySize=auto;html=1;entryX=1;entryY=0.5;entryDx=0;entryDy=0;" edge="1" parent="1" source="algwzxm7ROfjzH3wWhtB-23" target="algwzxm7ROfjzH3wWhtB-26">
          <mxGeometry relative="1" as="geometry" />
        </mxCell>
        <mxCell id="algwzxm7ROfjzH3wWhtB-22" value="n" style="edgeLabel;html=1;align=center;verticalAlign=middle;resizable=0;points=[];" vertex="1" connectable="0" parent="algwzxm7ROfjzH3wWhtB-21">
          <mxGeometry x="-0.2" relative="1" as="geometry">
            <mxPoint as="offset" />
          </mxGeometry>
        </mxCell>
        <mxCell id="algwzxm7ROfjzH3wWhtB-23" value="收藏" style="rhombus;whiteSpace=wrap;html=1;fillColor=#f5f5f5;fontColor=#333333;strokeColor=#666666;" vertex="1" parent="1">
          <mxGeometry x="357.5" y="130" width="120" height="50" as="geometry" />
        </mxCell>
        <mxCell id="algwzxm7ROfjzH3wWhtB-24" value="" style="edgeStyle=orthogonalEdgeStyle;rounded=0;orthogonalLoop=1;jettySize=auto;html=1;" edge="1" parent="1" source="algwzxm7ROfjzH3wWhtB-26" target="algwzxm7ROfjzH3wWhtB-27">
          <mxGeometry relative="1" as="geometry" />
        </mxCell>
        <mxCell id="algwzxm7ROfjzH3wWhtB-25" value="" style="edgeStyle=orthogonalEdgeStyle;rounded=0;orthogonalLoop=1;jettySize=auto;html=1;" edge="1" parent="1" source="algwzxm7ROfjzH3wWhtB-26" target="algwzxm7ROfjzH3wWhtB-28">
          <mxGeometry relative="1" as="geometry" />
        </mxCell>
        <mxCell id="algwzxm7ROfjzH3wWhtB-32" value="" style="edgeStyle=orthogonalEdgeStyle;rounded=0;orthogonalLoop=1;jettySize=auto;html=1;" edge="1" parent="1" source="algwzxm7ROfjzH3wWhtB-26" target="algwzxm7ROfjzH3wWhtB-30">
          <mxGeometry relative="1" as="geometry" />
        </mxCell>
        <mxCell id="algwzxm7ROfjzH3wWhtB-26" value="收藏内容" style="rounded=0;whiteSpace=wrap;html=1;fillColor=#f5f5f5;fontColor=#333333;strokeColor=#666666;" vertex="1" parent="1">
          <mxGeometry x="190" y="130" width="115" height="50" as="geometry" />
        </mxCell>
        <mxCell id="algwzxm7ROfjzH3wWhtB-27" value="用户" style="ellipse;whiteSpace=wrap;html=1;fillColor=#f5f5f5;strokeColor=#666666;fontColor=#333333;rounded=0;" vertex="1" parent="1">
          <mxGeometry x="207.5" y="70" width="80" height="35" as="geometry" />
        </mxCell>
        <mxCell id="algwzxm7ROfjzH3wWhtB-28" value="景点" style="ellipse;whiteSpace=wrap;html=1;fillColor=#f5f5f5;strokeColor=#666666;fontColor=#333333;rounded=0;" vertex="1" parent="1">
          <mxGeometry x="207.5" y="210" width="80" height="35" as="geometry" />
        </mxCell>
        <mxCell id="algwzxm7ROfjzH3wWhtB-30" value="时间" style="ellipse;whiteSpace=wrap;html=1;fillColor=#f5f5f5;strokeColor=#666666;fontColor=#333333;rounded=0;" vertex="1" parent="1">
          <mxGeometry x="80" y="137.5" width="80" height="35" as="geometry" />
        </mxCell>
        <mxCell id="algwzxm7ROfjzH3wWhtB-36" value="" style="edgeStyle=orthogonalEdgeStyle;rounded=0;orthogonalLoop=1;jettySize=auto;html=1;" edge="1" parent="1" source="algwzxm7ROfjzH3wWhtB-33" target="algwzxm7ROfjzH3wWhtB-35">
          <mxGeometry relative="1" as="geometry" />
        </mxCell>
        <mxCell id="algwzxm7ROfjzH3wWhtB-39" value="n" style="edgeLabel;html=1;align=center;verticalAlign=middle;resizable=0;points=[];" vertex="1" connectable="0" parent="algwzxm7ROfjzH3wWhtB-36">
          <mxGeometry x="-0.05" relative="1" as="geometry">
            <mxPoint as="offset" />
          </mxGeometry>
        </mxCell>
        <mxCell id="algwzxm7ROfjzH3wWhtB-33" value="下单" style="rhombus;whiteSpace=wrap;html=1;fillColor=#f5f5f5;fontColor=#333333;strokeColor=#666666;" vertex="1" parent="1">
          <mxGeometry x="530" y="290" width="120" height="50" as="geometry" />
        </mxCell>
        <mxCell id="algwzxm7ROfjzH3wWhtB-42" value="" style="edgeStyle=orthogonalEdgeStyle;rounded=0;orthogonalLoop=1;jettySize=auto;html=1;" edge="1" parent="1" source="algwzxm7ROfjzH3wWhtB-35" target="algwzxm7ROfjzH3wWhtB-40">
          <mxGeometry relative="1" as="geometry" />
        </mxCell>
        <mxCell id="algwzxm7ROfjzH3wWhtB-43" value="" style="edgeStyle=orthogonalEdgeStyle;rounded=0;orthogonalLoop=1;jettySize=auto;html=1;" edge="1" parent="1" source="algwzxm7ROfjzH3wWhtB-35" target="algwzxm7ROfjzH3wWhtB-41">
          <mxGeometry relative="1" as="geometry" />
        </mxCell>
        <mxCell id="algwzxm7ROfjzH3wWhtB-35" value="订单" style="rounded=0;whiteSpace=wrap;html=1;fillColor=#f5f5f5;fontColor=#333333;strokeColor=#666666;" vertex="1" parent="1">
          <mxGeometry x="700" y="290" width="115" height="50" as="geometry" />
        </mxCell>
        <mxCell id="algwzxm7ROfjzH3wWhtB-40" value="用户ID" style="ellipse;whiteSpace=wrap;html=1;fillColor=#f5f5f5;strokeColor=#666666;fontColor=#333333;rounded=0;" vertex="1" parent="1">
          <mxGeometry x="717.5" y="220" width="80" height="35" as="geometry" />
        </mxCell>
        <mxCell id="algwzxm7ROfjzH3wWhtB-41" value="景点ID" style="ellipse;whiteSpace=wrap;html=1;fillColor=#f5f5f5;strokeColor=#666666;fontColor=#333333;rounded=0;" vertex="1" parent="1">
          <mxGeometry x="717.5" y="370" width="80" height="35" as="geometry" />
        </mxCell>
        <mxCell id="algwzxm7ROfjzH3wWhtB-49" style="edgeStyle=orthogonalEdgeStyle;rounded=0;orthogonalLoop=1;jettySize=auto;html=1;entryX=0.5;entryY=0;entryDx=0;entryDy=0;" edge="1" parent="1" source="algwzxm7ROfjzH3wWhtB-45" target="algwzxm7ROfjzH3wWhtB-48">
          <mxGeometry relative="1" as="geometry">
            <mxPoint x="600" y="520" as="targetPoint" />
            <Array as="points">
              <mxPoint x="618" y="500" />
              <mxPoint x="560" y="500" />
            </Array>
          </mxGeometry>
        </mxCell>
        <mxCell id="algwzxm7ROfjzH3wWhtB-45" value="景区" style="rounded=0;whiteSpace=wrap;html=1;fillColor=#f5f5f5;fontColor=#333333;strokeColor=#666666;" vertex="1" parent="1">
          <mxGeometry x="560" y="430" width="115" height="50" as="geometry" />
        </mxCell>
        <mxCell id="algwzxm7ROfjzH3wWhtB-48" value="ID" style="ellipse;whiteSpace=wrap;html=1;fillColor=#f5f5f5;strokeColor=#666666;fontColor=#333333;rounded=0;" vertex="1" parent="1">
          <mxGeometry x="520" y="525" width="80" height="35" as="geometry" />
        </mxCell>
        <mxCell id="algwzxm7ROfjzH3wWhtB-50" value="简介" style="ellipse;whiteSpace=wrap;html=1;fillColor=#f5f5f5;strokeColor=#666666;fontColor=#333333;rounded=0;" vertex="1" parent="1">
          <mxGeometry x="630" y="525" width="80" height="35" as="geometry" />
        </mxCell>
        <mxCell id="algwzxm7ROfjzH3wWhtB-51" style="edgeStyle=orthogonalEdgeStyle;rounded=0;orthogonalLoop=1;jettySize=auto;html=1;entryX=0.5;entryY=0;entryDx=0;entryDy=0;exitX=0.5;exitY=1;exitDx=0;exitDy=0;" edge="1" parent="1" source="algwzxm7ROfjzH3wWhtB-45" target="algwzxm7ROfjzH3wWhtB-50">
          <mxGeometry relative="1" as="geometry">
            <mxPoint x="590" y="535" as="targetPoint" />
            <mxPoint x="628" y="490" as="sourcePoint" />
            <Array as="points">
              <mxPoint x="618" y="500" />
              <mxPoint x="670" y="500" />
            </Array>
          </mxGeometry>
        </mxCell>
        <mxCell id="algwzxm7ROfjzH3wWhtB-53" value="" style="edgeStyle=orthogonalEdgeStyle;rounded=0;orthogonalLoop=1;jettySize=auto;html=1;" edge="1" parent="1" source="algwzxm7ROfjzH3wWhtB-55" target="algwzxm7ROfjzH3wWhtB-56">
          <mxGeometry relative="1" as="geometry" />
        </mxCell>
        <mxCell id="algwzxm7ROfjzH3wWhtB-54" value="" style="edgeStyle=orthogonalEdgeStyle;rounded=0;orthogonalLoop=1;jettySize=auto;html=1;" edge="1" parent="1" source="algwzxm7ROfjzH3wWhtB-55" target="algwzxm7ROfjzH3wWhtB-57">
          <mxGeometry relative="1" as="geometry" />
        </mxCell>
        <mxCell id="algwzxm7ROfjzH3wWhtB-55" value="订单" style="rounded=0;whiteSpace=wrap;html=1;fillColor=#f5f5f5;fontColor=#333333;strokeColor=#666666;" vertex="1" parent="1">
          <mxGeometry x="143.5" y="430" width="115" height="50" as="geometry" />
        </mxCell>
        <mxCell id="algwzxm7ROfjzH3wWhtB-56" value="用户ID" style="ellipse;whiteSpace=wrap;html=1;fillColor=#f5f5f5;strokeColor=#666666;fontColor=#333333;rounded=0;" vertex="1" parent="1">
          <mxGeometry x="161" y="370" width="80" height="35" as="geometry" />
        </mxCell>
        <mxCell id="algwzxm7ROfjzH3wWhtB-57" value="景点ID" style="ellipse;whiteSpace=wrap;html=1;fillColor=#f5f5f5;strokeColor=#666666;fontColor=#333333;rounded=0;" vertex="1" parent="1">
          <mxGeometry x="161" y="515" width="80" height="35" as="geometry" />
        </mxCell>
      </root>
    </mxGraphModel>
  </diagram>
</mxfile>
